# xmcd CD database file
#
# Track frame offsets:
#	150
#	16800
#	34536
#	53631
#	70659
#	86084
#	102971
#	119496
#	140352
#	158136
#	173694
#	197654
#	211619
#	223319
#
# Disc length: 3261 seconds
#
# Revision: 0
# Processed by: cddbd v1.4PL0 Copyright (c) Steve Scherf et al.
# Submitted via: CDex 1.40Beta8
#
DISCID=b90cbb0e
DTITLE=L ee Towers - country roads
DYEAR=1999
DGENRE=Country
TTITLE0=Take me home country roads
TTITLE1=The most beautiful girl
TTITLE2=Me and Bobby McGee
TTITLE3=You needed me
TTITLE4=Rhinestone cowboy
TTITLE5=The devil went down to Georgia
TTITLE6=It turns me inside out
TTITLE7=Back home again
TTITLE8=Rool on Missisippi
TTITLE9=The hand that rocks the cradle
TTITLE10=Hotel California
TTITLE11=Sundown
TTITLE12=Drag'off the interstate sock it to'em J.P Blues
TTITLE13=You where always on my mind
EXTD=YEAR: 1999 ID3G: 2
EXTT0=
EXTT1=
EXTT2=
EXTT3=
EXTT4=
EXTT5=
EXTT6=
EXTT7=
EXTT8=
EXTT9=
EXTT10=
EXTT11=
EXTT12=
EXTT13=
PLAYORDER=
